<svg fill="#000000" viewBox="0 0 50 50" enable-background="new 0 0 50 50" version="1.1" xml:space="preserve"
  xmlns="http://www.w3.org/2000/svg" xmlns:xlink="http://www.w3.org/1999/xlink">
  <path clip-rule="evenodd"
    d="M12.541,30.622c-2.415,3.976-2.471,8.635-0.023,12.613c5.494,8.925,19.351,9.115,24.96,0 c2.456-3.993,2.398-8.625-0.028-12.614c-3.184-5.24-5.412-10.433-7.015-16.352c-0.161-0.593-0.418-1.148-0.75-1.648 C34.973,10.978,36.518,4.735,37.848,0c-4.519,0.729-10.362,1.475-12.966,5.71c-0.451-0.517-1.019-0.963-1.73-1.367l-1.39,2.449 c0.746,0.423,1.194,0.895,1.444,1.52c0.205,0.512,0.312,1.159,0.358,1.971c-1.938,0.515-3.477,2.045-4.002,3.985 C18.139,19.518,15.555,26.102,12.541,30.622z M33.851,3.562c-1.29,3.689-3.041,6.811-7.426,6.621 C26.739,5.816,30.032,4.426,33.851,3.562z M16.892,33.265l2.123,1.285c-2.533,4.166,1.972,7.914,5.983,7.914v2.493 C19.078,44.956,13.312,39.154,16.892,33.265z"
    fill-rule="evenodd"></path>
</svg>
